<svg width="111" height="60" viewBox="0 0 111 60" fill="none" xmlns="http://www.w3.org/2000/svg">
<g filter="url(#filter0_d_3_23)">
<g filter="url(#filter1_i_3_23)">
<path d="M18.9468 8.77553C16.3634 8.77553 14.8517 8.53991 12.6467 8.77553C11.0636 8.9447 9.75614 9.16674 8.55166 9.95364C7.018 10.9556 7.0371 12.0551 6.34664 13.488C6.03165 14.1417 5.5379 17.3867 5.40164 19.3785L5.08664 29.5103C5.28433 31.8516 5.71664 34.9296 5.71664 34.9296C5.71664 34.9296 7.213 35.6217 7.60666 35.4008C8.86666 34.694 8.55166 27.8609 8.55166 27.3897C8.55167 26.9184 9.49667 20.0854 9.49667 20.0854C9.49667 20.0854 9.6936 16.8667 10.4417 14.9017C10.986 13.472 11.3867 11.8386 12.3317 11.3674C12.7411 11.1632 13.9067 10.9993 13.9067 11.3674C13.9067 11.8386 11.8856 14.8984 11.3867 17.2579C10.7141 20.4389 11.3867 25.5047 11.3867 25.5047L12.3317 33.5158L12.0167 42.2339V46.9463C12.0167 46.9463 10.9836 49.672 12.6467 50.4806C14.2075 51.2395 17.2817 51.1034 18.9468 50.4806C19.5768 50.245 17.6143 46.9463 17.6143 46.9463L18.9468 42.9407L21.0793 36.3433C21.0793 36.3433 22.9693 32.1021 24.5444 32.809L26.8218 41.527L31.2319 48.1244L32.4919 50.4806C32.4919 50.4806 37.0894 51.253 38.1619 50.245C38.6634 49.7738 35.0119 46.9463 35.0119 46.9463L33.7519 42.9407V38.2283L35.0119 32.809L38.1619 31.6309C38.1619 31.6309 40.474 31.5143 41.942 31.6309C44.2272 31.8124 47.2246 32.1021 48.1696 32.1021C49.1146 32.1021 52.8946 31.3952 53.8396 32.1021C54.7846 32.809 54.8571 38.9352 54.8571 38.9352L53.8396 45.7682C53.8396 45.7682 52.1382 49.8317 52.9671 50.245C53.9121 50.7163 59.8247 51.0946 59.8247 50.245C59.8247 49.3025 59.8247 45.7682 59.8247 45.7682V39.8776C59.8247 39.8776 63.3622 31.1596 64.3072 32.1021C65.2522 33.0446 64.8647 40.3489 64.8647 40.3489L64.3072 46.0038C64.3072 46.0038 64.3725 49.1587 66.5122 50.0094C68.1416 50.6572 70.9222 50.4806 71.5522 50.245C72.8122 49.7738 69.3472 46.0038 69.3472 46.0038L69.6622 38.2283L72.4972 32.1021L76.9073 26.6828L80.0573 23.8553C80.0573 23.8553 82.042 21.1691 84.1523 20.0854C85.5649 19.36 86.6005 19.2611 88.2473 18.9073C93.4497 17.7896 100.847 19.1429 102.107 18.9073C103.367 18.6717 104.04 18.4777 104.627 17.7292C105.13 17.0895 105.086 16.5782 104.942 15.8442C104.735 14.7824 103.052 13.488 103.052 13.488L99.2724 9.95364L96.1224 8.06866C96.1224 8.06866 90.4524 5.47682 90.4524 5.00558C90.4524 4.53433 93.4449 4.06309 93.4449 4.06309L96.4374 3.1206C98.1623 2.56614 99.5246 2.22537 99.2724 1.94249C98.6424 1.23562 92.9724 1 92.9724 1H90.4524H89.1924L86.6723 1.47124L83.2073 4.29871C83.2073 4.29871 80.6873 1.94249 79.7423 1.94249C78.7973 1.94249 79.7423 6.18369 79.7423 6.18369C79.7423 6.18369 80.2033 6.42742 80.3723 6.65493C80.671 7.05711 80.6873 7.53526 80.3723 7.83304C80.0573 8.13082 78.2598 7.80106 76.9073 7.83304C72.9421 7.92679 66.8272 8.77553 66.8272 8.77553H56.1171H42.887H33.7519H26.8218H18.9468Z" fill="black"/>
</g>
<path d="M18.9468 8.77553C16.3634 8.77553 14.8517 8.53991 12.6467 8.77553C11.0636 8.9447 9.75614 9.16674 8.55166 9.95364C7.018 10.9556 7.0371 12.0551 6.34664 13.488C6.03165 14.1417 5.5379 17.3867 5.40164 19.3785M18.9468 8.77553C22.0222 8.77553 26.8218 8.77553 26.8218 8.77553M18.9468 8.77553H26.8218M26.8218 8.77553H33.7519H42.887H56.1171H66.8272C66.8272 8.77553 72.9421 7.92679 76.9073 7.83304C78.2598 7.80106 80.0573 8.13082 80.3723 7.83304C80.6873 7.53526 80.671 7.05711 80.3723 6.65493C80.2033 6.42742 79.7423 6.18369 79.7423 6.18369C79.7423 6.18369 78.7973 1.94249 79.7423 1.94249C80.6873 1.94249 83.2073 4.29871 83.2073 4.29871L86.6723 1.47124L89.1924 1H90.4524H92.9724C92.9724 1 98.6424 1.23562 99.2724 1.94249C99.5246 2.22537 98.1623 2.56614 96.4374 3.1206L93.4449 4.06309C93.4449 4.06309 90.4524 4.53433 90.4524 5.00558C90.4524 5.47682 96.1224 8.06866 96.1224 8.06866L99.2724 9.95364L103.052 13.488C103.052 13.488 104.735 14.7824 104.942 15.8442C105.086 16.5782 105.13 17.0895 104.627 17.7292C104.04 18.4777 103.367 18.6717 102.107 18.9073C100.847 19.1429 93.4497 17.7896 88.2473 18.9073C86.6005 19.2611 85.5649 19.36 84.1523 20.0854C82.042 21.1691 80.0573 23.8553 80.0573 23.8553L76.9073 26.6828L72.4972 32.1021L69.6622 38.2283L69.3472 46.0038C69.3472 46.0038 72.8122 49.7738 71.5522 50.245C70.9222 50.4806 68.1416 50.6572 66.5122 50.0094C64.3725 49.1587 64.3072 46.0038 64.3072 46.0038L64.8647 40.3489C64.8647 40.3489 65.2522 33.0446 64.3072 32.1021C63.3622 31.1596 59.8247 39.8776 59.8247 39.8776V45.7682C59.8247 45.7682 59.8247 49.3025 59.8247 50.245C59.8247 51.0946 53.9121 50.7163 52.9671 50.245C52.1382 49.8317 53.8396 45.7682 53.8396 45.7682L54.8571 38.9352C54.8571 38.9352 54.7846 32.809 53.8396 32.1021C52.8946 31.3952 49.1146 32.1021 48.1696 32.1021C47.2246 32.1021 44.2272 31.8124 41.942 31.6309C40.474 31.5143 38.1619 31.6309 38.1619 31.6309L35.0119 32.809L33.7519 38.2283V42.9407L35.0119 46.9463C35.0119 46.9463 38.6634 49.7738 38.1619 50.245C37.0894 51.253 32.4919 50.4806 32.4919 50.4806L31.2319 48.1244L26.8218 41.527L24.5444 32.809C22.9693 32.1021 21.0793 36.3433 21.0793 36.3433L18.9468 42.9407L17.6143 46.9463C17.6143 46.9463 19.5768 50.245 18.9468 50.4806C17.2817 51.1034 14.2075 51.2395 12.6467 50.4806C10.9836 49.672 12.0167 46.9463 12.0167 46.9463V42.2339L12.3317 33.5158L11.3867 25.5047C11.3867 25.5047 10.7141 20.4389 11.3867 17.2579C11.8856 14.8984 13.9067 11.8386 13.9067 11.3674C13.9067 10.9993 12.7411 11.1632 12.3317 11.3674C11.3867 11.8386 10.986 13.472 10.4417 14.9017C9.6936 16.8667 9.49667 20.0854 9.49667 20.0854C9.49667 20.0854 8.55167 26.9184 8.55166 27.3897C8.55166 27.8609 8.86666 34.694 7.60666 35.4008C7.213 35.6217 5.71664 34.9296 5.71664 34.9296C5.71664 34.9296 5.28433 31.8516 5.08664 29.5103M5.08664 29.5103C4.92362 27.5796 5.22583 25.0335 5.22583 25.0335C5.22583 25.0335 5.21023 22.1766 5.40164 19.3785M5.08664 29.5103L5.40164 19.3785" stroke="black" stroke-width="2"/>
<g filter="url(#filter2_i_3_23)">
<path d="M23.0087 12.0742H18.8743V16.9339V20.0265V22.6772H23.0087V19.1429H27.1431V22.6772H31.2776V12.0742H27.1431V16.0504H23.0087V12.0742Z" fill="white" stroke="black"/>
<path d="M39.5464 11.1907H34.8213L31.2776 22.2354H34.2307L34.8213 20.0265H39.5464L40.7276 22.2354H43.6808L39.5464 11.1907Z" fill="white" stroke="black"/>
<path d="M38.3651 13.3996H36.5932L35.412 17.8175H38.9557L38.3651 13.3996Z" fill="black" stroke="black"/>
<path d="M60.8091 11.1907H56.084L52.5402 22.2354H55.4934L56.084 20.0265H60.8091L61.9903 22.2354H64.9435L60.8091 11.1907Z" fill="white" stroke="black"/>
<path d="M59.6278 13.3996H57.8559L56.6747 17.8175H60.2184L59.6278 13.3996Z" fill="black" stroke="black"/>
<path d="M44.2714 22.2354L44.862 11.1907H48.4058V20.0265H54.3121V22.2354H44.2714Z" fill="white" stroke="#0D0D0D"/>
<path d="M65.5341 22.2354L66.1247 11.1907H69.6685V20.0265H75.5748V22.2354H65.5341Z" fill="white" stroke="#0D0D0D"/>
</g>
</g>
<defs>
<filter id="filter0_d_3_23" x="0.0383835" y="0" width="110" height="60" filterUnits="userSpaceOnUse" color-interpolation-filters="sRGB">
<feFlood flood-opacity="0" result="BackgroundImageFix"/>
<feColorMatrix in="SourceAlpha" type="matrix" values="0 0 0 0 0 0 0 0 0 0 0 0 0 0 0 0 0 0 127 0" result="hardAlpha"/>
<feOffset dy="4"/>
<feGaussianBlur stdDeviation="2"/>
<feComposite in2="hardAlpha" operator="out"/>
<feColorMatrix type="matrix" values="0 0 0 0 0 0 0 0 0 0 0 0 0 0 0 0 0 0 0.25 0"/>
<feBlend mode="normal" in2="BackgroundImageFix" result="effect1_dropShadow_3_23"/>
<feBlend mode="normal" in="SourceGraphic" in2="effect1_dropShadow_3_23" result="shape"/>
</filter>
<filter id="filter1_i_3_23" x="4.03838" y="0" width="102" height="52" filterUnits="userSpaceOnUse" color-interpolation-filters="sRGB">
<feFlood flood-opacity="0" result="BackgroundImageFix"/>
<feBlend mode="normal" in="SourceGraphic" in2="BackgroundImageFix" result="shape"/>
<feColorMatrix in="SourceAlpha" type="matrix" values="0 0 0 0 0 0 0 0 0 0 0 0 0 0 0 0 0 0 127 0" result="hardAlpha"/>
<feOffset/>
<feGaussianBlur stdDeviation="2"/>
<feComposite in2="hardAlpha" operator="arithmetic" k2="-1" k3="1"/>
<feColorMatrix type="matrix" values="0 0 0 0 1 0 0 0 0 1 0 0 0 0 1 0 0 0 1 0"/>
<feBlend mode="normal" in2="shape" result="effect1_innerShadow_3_23"/>
</filter>
<filter id="filter2_i_3_23" x="18.3743" y="10.6907" width="57.7005" height="16.4866" filterUnits="userSpaceOnUse" color-interpolation-filters="sRGB">
<feFlood flood-opacity="0" result="BackgroundImageFix"/>
<feBlend mode="normal" in="SourceGraphic" in2="BackgroundImageFix" result="shape"/>
<feColorMatrix in="SourceAlpha" type="matrix" values="0 0 0 0 0 0 0 0 0 0 0 0 0 0 0 0 0 0 127 0" result="hardAlpha"/>
<feOffset dy="4"/>
<feGaussianBlur stdDeviation="2"/>
<feComposite in2="hardAlpha" operator="arithmetic" k2="-1" k3="1"/>
<feColorMatrix type="matrix" values="0 0 0 0 0.963333 0 0 0 0 0.963333 0 0 0 0 0.963333 0 0 0 0.5 0"/>
<feBlend mode="normal" in2="shape" result="effect1_innerShadow_3_23"/>
</filter>
</defs>
</svg>
